<?xml version="1.0" encoding="UTF-8" standalone="no"?>
<!-- Generator: Adobe Illustrator 19.0.0, SVG Export Plug-In . SVG Version: 6.00 Build 0)  -->

<svg
   xmlns:dc="http://purl.org/dc/elements/1.1/"
   xmlns:cc="http://creativecommons.org/ns#"
   xmlns:rdf="http://www.w3.org/1999/02/22-rdf-syntax-ns#"
   xmlns:svg="http://www.w3.org/2000/svg"
   xmlns="http://www.w3.org/2000/svg"
   xmlns:sodipodi="http://sodipodi.sourceforge.net/DTD/sodipodi-0.dtd"
   xmlns:inkscape="http://www.inkscape.org/namespaces/inkscape"
   version="1.1"
   id="Capa_1"
   x="0px"
   y="0px"
   viewBox="0 0 394.83 394.83"
   style="enable-background:new 0 0 394.83 394.83;"
   xml:space="preserve"
   inkscape:version="0.92.4 (5da689c313, 2019-01-14)"
   sodipodi:docname="connect.svg"><metadata
     id="metadata5270"><rdf:RDF><cc:Work
         rdf:about=""><dc:format>image/svg+xml</dc:format><dc:type
           rdf:resource="http://purl.org/dc/dcmitype/StillImage" /><dc:title></dc:title></cc:Work></rdf:RDF></metadata><defs
     id="defs5268" /><sodipodi:namedview
     pagecolor="#ffffff"
     bordercolor="#666666"
     borderopacity="1"
     objecttolerance="10"
     gridtolerance="10"
     guidetolerance="10"
     inkscape:pageopacity="0"
     inkscape:pageshadow="2"
     inkscape:window-width="2560"
     inkscape:window-height="1377"
     id="namedview5266"
     showgrid="false"
     inkscape:zoom="2.1528254"
     inkscape:cx="102.88725"
     inkscape:cy="176.42419"
     inkscape:window-x="-8"
     inkscape:window-y="-8"
     inkscape:window-maximized="1"
     inkscape:current-layer="Capa_1" /><g
     id="g5236"
     transform="matrix(0.5840481,0,0,0.58235746,135.65646,30.817175)" /><g
     id="g5238"
     transform="matrix(0.5840481,0,0,0.58235746,135.65646,30.817175)" /><g
     id="g5240"
     transform="matrix(0.5840481,0,0,0.58235746,135.65646,30.817175)" /><g
     id="g5242"
     transform="matrix(0.5840481,0,0,0.58235746,135.65646,30.817175)" /><g
     id="g5244"
     transform="matrix(0.5840481,0,0,0.58235746,135.65646,30.817175)" /><g
     id="g5246"
     transform="matrix(0.5840481,0,0,0.58235746,135.65646,30.817175)" /><g
     id="g5248"
     transform="matrix(0.5840481,0,0,0.58235746,135.65646,30.817175)" /><g
     id="g5250"
     transform="matrix(0.5840481,0,0,0.58235746,135.65646,30.817175)" /><g
     id="g5252"
     transform="matrix(0.5840481,0,0,0.58235746,135.65646,30.817175)" /><g
     id="g5254"
     transform="matrix(0.5840481,0,0,0.58235746,135.65646,30.817175)" /><g
     id="g5256"
     transform="matrix(0.5840481,0,0,0.58235746,135.65646,30.817175)" /><g
     id="g5258"
     transform="matrix(0.5840481,0,0,0.58235746,135.65646,30.817175)" /><g
     id="g5260"
     transform="matrix(0.5840481,0,0,0.58235746,135.65646,30.817175)" /><g
     id="g5262"
     transform="matrix(0.5840481,0,0,0.58235746,135.65646,30.817175)" /><g
     id="g5264"
     transform="matrix(0.5840481,0,0,0.58235746,135.65646,30.817175)" /><g
     id="g5500"
     transform="matrix(0.34577077,0,0,0.34577077,111.18347,100.69968)"><g
       id="g5502"><path
         id="path5504"
         d="m 439.92091,65.362129 c -8,-8 -20.9,-8 -28.9,0 l -39.9,39.900001 c -16.8,-11.200001 -36.4,-17.200001 -57,-17.200001 -27.5,0 -53.4,10.7 -72.9,30.200001 l -58.4,58.4 c -8,8 -8,20.9 0,28.9 l 116.9,116.9 c 12.5,11.3 25,3.8 28.9,0 l 58.4,-58.4 c 35.2,-35.2 39.6,-89.9 13,-129.9 l 39.9,-39.900001 c 8,-8 8,-20.9 0,-28.9 z m -81.8,169.800001 -44,44 -88,-88 44,-44 c 11.8,-11.8 27.4,-18.2 44,-18.2 16.6,0 32.3,6.5 44,18.2 24.3,24.2 24.3,63.7 0,88 z"
         inkscape:connector-curvature="0" /><path
         id="path5506"
         d="m 259.51124,277.0718 -31.3,-31.4 c 12.37554,16.78544 12.47456,14.58768 -28.9,-28.9 l -13.9,-13.9 c -3.8,-3.8 -16.1,-11.2 -28.9,0 l -58.399998,58.4 c -35.2,35.2 -39.6,89.9 -13,129.9 l -39.9,40 c -8,8 -8,20.9 0,28.9 8,8 20.9,8 28.9,0 l 39.899998,-39.9 c 16.8,11.2 36.4,17.2 57,17.2 27.5,0 53.4,-10.7 72.9,-30.2 l 58.4,-58.4 c 8,-8 8,-20.9 0,-28.9 l -13.9,-13.9 c -34.67044,-36.99706 0,0 -28.9,-28.9 z m -44.5,101.2 c -11.8,11.8 -27.4,18.2 -44,18.2 -16.6,0 -32.3,-6.5 -44,-18.2 -24.3,-24.3 -24.3,-63.8 0,-88 l 44,-44 88,88 z"
         inkscape:connector-curvature="0"
         sodipodi:nodetypes="cccscsccsscssssccssscccs" /></g></g></svg>